<svg xmlns="http://www.w3.org/2000/svg" xmlns:xlink="http://www.w3.org/1999/xlink" width="368" zoomAndPan="magnify" viewBox="0 0 276 255.749984" height="341" preserveAspectRatio="xMidYMid meet" version="1.0"><defs><clipPath id="73496b749c"><path d="M 75.765625 75 L 200 75 L 200 180.640625 L 75.765625 180.640625 Z M 75.765625 75 " clip-rule="nonzero"/></clipPath><clipPath id="454b1807d0"><path d="M 118 108.058594 L 158.519531 108.058594 L 158.519531 147 L 118 147 Z M 118 108.058594 " clip-rule="nonzero"/></clipPath></defs><g clip-path="url(#73496b749c)"><path fill="#ffffff" d="M 199.238281 102.164062 C 199.070312 99.222656 200.144531 95.9375 198.199219 93.378906 C 194.792969 92.4375 191.398438 91.484375 187.980469 90.640625 C 187.800781 86.390625 188.136719 82.125 187.824219 77.886719 C 187.332031 74.992188 183.828125 76 181.792969 75.980469 C 164.171875 76.863281 147.933594 86.882812 137.570312 100.960938 C 126.421875 85.703125 108.152344 75.191406 89.023438 75.976562 C 88.640625 76.300781 87.871094 76.953125 87.480469 77.277344 C 86.898438 81.6875 87.445312 86.1875 87.210938 90.628906 C 83.335938 92.199219 77.609375 91.953125 75.765625 96.441406 C 76.492188 98.214844 76.660156 100.132812 76.582031 102.039062 C 76.414062 124.542969 76.738281 147.039062 76.425781 169.53125 C 76.132812 171.226562 76.445312 174.222656 78.871094 173.695312 C 86.699219 170.835938 95.128906 169.800781 103.4375 170.285156 C 114.730469 171.171875 126.457031 173.832031 135.734375 180.628906 C 136.640625 180.628906 138.4375 180.628906 139.332031 180.640625 C 144.46875 176.679688 150.699219 174.523438 156.851562 172.742188 C 170.042969 169.027344 184.28125 169.375 197.246094 173.828125 C 200.015625 173.359375 199.265625 170.308594 199.289062 168.285156 C 199.171875 146.253906 199.273438 124.207031 199.238281 102.164062 Z M 81.292969 167.601562 C 81.363281 144.367188 81.285156 121.121094 81.328125 97.886719 C 83.304688 97.179688 85.292969 96.472656 87.28125 95.777344 C 87.238281 114.332031 87.246094 132.890625 87.269531 151.445312 C 87.011719 154.824219 91.210938 154.226562 93.402344 154.441406 C 106.46875 154.992188 118.363281 161.667969 127.855469 170.339844 C 113.199219 164.394531 96.515625 163.046875 81.292969 167.601562 Z M 145.085938 171.527344 C 152.332031 164.402344 160.6875 158.011719 170.613281 155.261719 C 175.730469 153.519531 181.144531 153.355469 186.460938 152.847656 C 188.179688 152.636719 187.824219 150.480469 187.945312 149.269531 C 187.933594 131.519531 187.925781 113.773438 187.933594 96.023438 C 190.066406 96.675781 192.203125 97.324219 194.34375 97.953125 C 194.648438 121.1875 194.355469 144.433594 194.488281 167.667969 C 178.242188 163.148438 160.496094 164.761719 145.085938 171.527344 Z M 145.085938 171.527344 " fill-opacity="1" fill-rule="nonzero"/></g><g clip-path="url(#454b1807d0)"><path fill="#410756" d="M 145.195312 108.097656 C 145.109375 108.097656 145.023438 108.101562 144.9375 108.109375 C 141.523438 108.699219 139.644531 112.3125 139.371094 115.5 C 138.972656 118.390625 140.246094 122.109375 143.421875 122.757812 C 143.882812 122.84375 144.359375 122.804688 144.808594 122.683594 C 148.632812 121.398438 150.339844 116.871094 149.789062 113.121094 C 149.628906 110.699219 147.804688 108.066406 145.195312 108.097656 Z M 130.710938 108.253906 C 128.589844 108.304688 126.933594 110.460938 126.597656 112.488281 C 125.886719 116.5 127.710938 121.488281 131.890625 122.757812 C 132.285156 122.84375 132.6875 122.851562 133.082031 122.789062 C 135.910156 122.320312 137.105469 119.148438 136.988281 116.59375 C 136.902344 113.21875 135.152344 109.316406 131.648438 108.367188 C 131.328125 108.28125 131.015625 108.246094 130.710938 108.253906 Z M 154.449219 119.652344 C 150.773438 119.875 148.257812 123.542969 147.898438 126.964844 C 147.410156 129.4375 148.726562 132.742188 151.542969 132.9375 C 155.472656 132.890625 158.152344 128.691406 158.265625 125.078125 C 158.511719 122.6875 157.105469 119.785156 154.449219 119.652344 Z M 122.289062 120.46875 C 120.726562 120.453125 119.1875 121.390625 118.675781 122.980469 C 117.3125 127.234375 120.050781 132.621094 124.554688 133.515625 C 126.433594 133.835938 128.082031 132.390625 128.550781 130.65625 C 129.535156 126.9375 127.507812 122.625 124.078125 120.9375 C 123.515625 120.625 122.898438 120.472656 122.289062 120.46875 Z M 138.761719 128.09375 C 135.695312 128.101562 132.582031 129.65625 130.597656 131.972656 C 128.457031 134.671875 126.699219 137.8125 126.011719 141.21875 C 125.179688 143.671875 127.070312 146.496094 129.691406 146.511719 C 132.84375 146.597656 135.550781 144.433594 138.6875 144.273438 C 141.347656 143.867188 143.726562 145.25 146.117188 146.15625 C 148.152344 147.027344 150.96875 146.695312 152.007812 144.503906 C 152.824219 142.269531 151.621094 139.886719 150.625 137.902344 C 148.589844 134.679688 146.414062 131.296875 143.078125 129.285156 C 141.742188 128.457031 140.257812 128.089844 138.761719 128.09375 Z M 138.761719 128.09375 " fill-opacity="1" fill-rule="nonzero"/></g></svg>