<svg width="30" height="30" viewBox="0 0 30 30" fill="none" xmlns="http://www.w3.org/2000/svg">
<path d="M9.375 7.5C9.12636 7.5 8.8879 7.59877 8.71209 7.77459C8.53627 7.9504 8.4375 8.18886 8.4375 8.4375C8.4375 8.68614 8.53627 8.9246 8.71209 9.10041C8.8879 9.27623 9.12636 9.375 9.375 9.375H20.625C20.8736 9.375 21.1121 9.27623 21.2879 9.10041C21.4637 8.9246 21.5625 8.68614 21.5625 8.4375C21.5625 8.18886 21.4637 7.9504 21.2879 7.77459C21.1121 7.59877 20.8736 7.5 20.625 7.5H9.375ZM8.4375 12.1875C8.4375 11.9389 8.53627 11.7004 8.71209 11.5246C8.8879 11.3488 9.12636 11.25 9.375 11.25H20.625C20.8736 11.25 21.1121 11.3488 21.2879 11.5246C21.4637 11.7004 21.5625 11.9389 21.5625 12.1875C21.5625 12.4361 21.4637 12.6746 21.2879 12.8504C21.1121 13.0262 20.8736 13.125 20.625 13.125H9.375C9.12636 13.125 8.8879 13.0262 8.71209 12.8504C8.53627 12.6746 8.4375 12.4361 8.4375 12.1875ZM9.375 15C9.12636 15 8.8879 15.0988 8.71209 15.2746C8.53627 15.4504 8.4375 15.6889 8.4375 15.9375C8.4375 16.1861 8.53627 16.4246 8.71209 16.6004C8.8879 16.7762 9.12636 16.875 9.375 16.875H20.625C20.8736 16.875 21.1121 16.7762 21.2879 16.6004C21.4637 16.4246 21.5625 16.1861 21.5625 15.9375C21.5625 15.6889 21.4637 15.4504 21.2879 15.2746C21.1121 15.0988 20.8736 15 20.625 15H9.375ZM9.375 18.75C9.12636 18.75 8.8879 18.8488 8.71209 19.0246C8.53627 19.2004 8.4375 19.4389 8.4375 19.6875C8.4375 19.9361 8.53627 20.1746 8.71209 20.3504C8.8879 20.5262 9.12636 20.625 9.375 20.625H15C15.2486 20.625 15.4871 20.5262 15.6629 20.3504C15.8387 20.1746 15.9375 19.9361 15.9375 19.6875C15.9375 19.4389 15.8387 19.2004 15.6629 19.0246C15.4871 18.8488 15.2486 18.75 15 18.75H9.375Z" fill="white"/>
<path d="M3.75 3.75C3.75 2.75544 4.14509 1.80161 4.84835 1.09835C5.55161 0.395088 6.50544 0 7.5 0L22.5 0C23.4946 0 24.4484 0.395088 25.1516 1.09835C25.8549 1.80161 26.25 2.75544 26.25 3.75V26.25C26.25 27.2446 25.8549 28.1984 25.1516 28.9016C24.4484 29.6049 23.4946 30 22.5 30H7.5C6.50544 30 5.55161 29.6049 4.84835 28.9016C4.14509 28.1984 3.75 27.2446 3.75 26.25V3.75ZM22.5 1.875H7.5C7.00272 1.875 6.52581 2.07254 6.17417 2.42417C5.82254 2.77581 5.625 3.25272 5.625 3.75V26.25C5.625 26.7473 5.82254 27.2242 6.17417 27.5758C6.52581 27.9275 7.00272 28.125 7.5 28.125H22.5C22.9973 28.125 23.4742 27.9275 23.8258 27.5758C24.1775 27.2242 24.375 26.7473 24.375 26.25V3.75C24.375 3.25272 24.1775 2.77581 23.8258 2.42417C23.4742 2.07254 22.9973 1.875 22.5 1.875Z" fill="white"/>
</svg>
