<svg xmlns="http://www.w3.org/2000/svg" xmlns:xlink="http://www.w3.org/1999/xlink" width="440" zoomAndPan="magnify" viewBox="0 0 330 215.999996" height="288" preserveAspectRatio="xMidYMid meet" version="1.0"><defs><g/></defs><g fill="#ffffff" fill-opacity="1"><g transform="translate(75.111407, 125.075793)"><g><path d="M 18.808594 -39.101562 C 14.792969 -39.101562 9.347656 -32.503906 7.039062 -26.234375 C 7.09375 -32.449219 7.039062 -39.101562 6.875 -39.929688 C 6.542969 -41.359375 1.980469 -40.53125 2.144531 -39.707031 C 2.253906 -37.5625 3.355469 -25.023438 3.683594 -16.277344 C 3.738281 -15.125 3.738281 -13.914062 3.792969 -12.703125 C 2.035156 -14.410156 1.101562 -16.828125 1.101562 -19.195312 C 1.101562 -19.742188 -2.253906 -19.855469 -2.253906 -17.269531 C -2.253906 -13.695312 0.273438 -10.890625 3.792969 -9.347656 C 3.738281 -3.960938 3.574219 1.210938 3.519531 2.144531 C 3.464844 3.628906 7.917969 3.851562 7.917969 2.417969 C 7.917969 0.878906 7.480469 -3.246094 7.203125 -8.359375 C 8.03125 -8.195312 8.910156 -8.140625 9.789062 -8.140625 C 17.433594 -8.140625 25.132812 -15.179688 25.132812 -29.3125 C 25.132812 -35.636719 22.382812 -39.101562 18.808594 -39.101562 Z M 10.066406 -10.175781 C 8.964844 -10.175781 7.976562 -10.339844 7.09375 -10.613281 C 6.984375 -12.757812 6.929688 -14.960938 6.984375 -17.214844 L 7.039062 -17.214844 C 7.316406 -24.089844 13.914062 -36.847656 18.753906 -36.847656 C 20.898438 -36.847656 21.945312 -33.878906 21.945312 -29.257812 C 21.945312 -18.148438 15.179688 -10.175781 10.066406 -10.175781 Z M 10.066406 -10.175781 "/></g></g></g><g fill="#ffffff" fill-opacity="1"><g transform="translate(104.36929, 125.075793)"><g><path d="M 18.699219 -16.773438 C 16.773438 -10.339844 11.328125 0.164062 6.929688 0.164062 C 5.664062 0.164062 3.519531 -0.988281 2.695312 -4.398438 C 7.425781 -7.917969 11.988281 -12.429688 11.988281 -17.929688 C 11.988281 -20.074219 10.722656 -22.109375 7.808594 -22.109375 C 3.628906 -22.109375 -0.386719 -16.882812 -1.046875 -9.128906 C -1.761719 0.109375 4.234375 2.035156 6.765625 2.035156 C 12.757812 2.035156 18.425781 -10.066406 20.019531 -14.90625 C 20.347656 -15.894531 19.085938 -18.09375 18.699219 -16.773438 Z M 2.417969 -8.910156 C 2.859375 -14.246094 5.554688 -20.347656 7.917969 -20.347656 C 9.183594 -20.347656 9.292969 -18.535156 9.183594 -17.378906 C 8.691406 -12.265625 5.167969 -8.855469 2.363281 -6.710938 C 2.363281 -7.371094 2.363281 -8.085938 2.417969 -8.910156 Z M 2.417969 -8.910156 "/></g></g></g><g fill="#ffffff" fill-opacity="1"><g transform="translate(121.418055, 125.075793)"><g><path d="M 15.289062 -16.773438 C 11.769531 -8.691406 6.105469 1.046875 4.453125 1.046875 C 4.015625 1.046875 3.410156 -0.109375 3.355469 -1.761719 C 3.023438 -7.808594 3.191406 -13.417969 4.070312 -22.054688 C 6.542969 -22.21875 9.292969 -22.933594 11.988281 -23.8125 C 12.648438 -24.035156 12.320312 -25.574219 11.714844 -25.300781 C 10.121094 -24.527344 7.589844 -24.089844 4.289062 -24.089844 L 5.445312 -33.769531 C 5.609375 -34.921875 1.816406 -35.582031 1.816406 -33.933594 C 1.539062 -31.019531 1.210938 -27.882812 0.933594 -24.308594 C -2.53125 -24.75 -4.839844 -25.792969 -5.335938 -26.5625 C -5.445312 -26.730469 -6.601562 -26.179688 -6.601562 -25.023438 C -6.601562 -23.097656 -3.355469 -22.328125 0.769531 -22.109375 C 0.441406 -16.996094 0.164062 -10.835938 0.21875 -3.078125 C 0.273438 1.101562 1.703125 3.191406 4.398438 3.191406 C 7.535156 3.191406 11.605469 -4.179688 16.390625 -14.90625 C 16.9375 -15.785156 15.839844 -17.984375 15.289062 -16.773438 Z M 15.289062 -16.773438 "/></g></g></g><g fill="#ffffff" fill-opacity="1"><g transform="translate(134.947076, 125.075793)"><g><path d="M 19.523438 -3.851562 C 19.195312 -2.53125 17.488281 0.550781 13.75 0.550781 C 10.007812 0.550781 4.015625 -3.90625 4.015625 -17.765625 C 4.015625 -32.722656 10.007812 -37.785156 13.472656 -37.785156 C 17.378906 -37.785156 17.820312 -35.089844 17.378906 -34.429688 C 16.996094 -33.878906 19.855469 -33.109375 19.6875 -35.914062 C 19.632812 -37.011719 18.371094 -39.707031 13.75 -39.707031 C 8.195312 -39.707031 0.660156 -34.976562 0.660156 -17.542969 C 0.660156 -1.210938 8.195312 2.199219 13.472656 2.199219 C 18.753906 2.199219 21.0625 -0.0546875 21.722656 -1.648438 C 22.382812 -3.246094 19.910156 -4.34375 19.523438 -3.851562 Z M 19.523438 -3.851562 "/></g></g></g><g fill="#ffffff" fill-opacity="1"><g transform="translate(161.180172, 125.075793)"><g><path d="M 27.167969 -16.609375 C 25.242188 -9.789062 20.238281 0.550781 18.3125 0.550781 C 17.597656 0.550781 17.160156 -1.761719 17.160156 -8.910156 C 17.160156 -17.050781 15.949219 -20.734375 12.871094 -20.734375 C 9.953125 -20.734375 6.378906 -15.015625 2.640625 -5.226562 C 2.476562 -11 2.253906 -18.808594 2.199219 -20.074219 C 1.980469 -27.003906 4.453125 -29.644531 4.453125 -35.417969 C 4.453125 -38.828125 3.792969 -40.3125 2.144531 -40.3125 C 0.441406 -40.3125 -0.550781 -37.617188 -0.550781 -33 L -0.496094 1.210938 C -0.496094 2.253906 2.75 2.035156 2.804688 1.046875 L 2.859375 1.046875 C 3.683594 -1.59375 10.230469 -18.371094 12.539062 -18.371094 C 14.132812 -18.371094 13.585938 -9.625 13.585938 -6.105469 C 13.585938 0.0546875 14.960938 2.476562 17.652344 2.476562 C 21.339844 2.476562 25.242188 -5.058594 28.488281 -14.683594 C 28.820312 -15.675781 27.609375 -18.09375 27.167969 -16.609375 Z M 27.167969 -16.609375 "/></g></g></g><g fill="#ffffff" fill-opacity="1"><g transform="translate(186.698321, 125.075793)"><g><path d="M 18.699219 -16.773438 C 16.773438 -10.339844 11.328125 0.164062 6.929688 0.164062 C 5.664062 0.164062 3.519531 -0.988281 2.695312 -4.398438 C 7.425781 -7.917969 11.988281 -12.429688 11.988281 -17.929688 C 11.988281 -20.074219 10.722656 -22.109375 7.808594 -22.109375 C 3.628906 -22.109375 -0.386719 -16.882812 -1.046875 -9.128906 C -1.761719 0.109375 4.234375 2.035156 6.765625 2.035156 C 12.757812 2.035156 18.425781 -10.066406 20.019531 -14.90625 C 20.347656 -15.894531 19.085938 -18.09375 18.699219 -16.773438 Z M 2.417969 -8.910156 C 2.859375 -14.246094 5.554688 -20.347656 7.917969 -20.347656 C 9.183594 -20.347656 9.292969 -18.535156 9.183594 -17.378906 C 8.691406 -12.265625 5.167969 -8.855469 2.363281 -6.710938 C 2.363281 -7.371094 2.363281 -8.085938 2.417969 -8.910156 Z M 2.417969 -8.910156 "/></g></g></g><g fill="#ffffff" fill-opacity="1"><g transform="translate(203.747086, 125.075793)"><g><path d="M 6.378906 2.476562 C 12.375 2.417969 18.148438 -10.007812 19.742188 -14.90625 C 20.019531 -15.894531 18.863281 -18.257812 18.425781 -16.773438 C 16.609375 -10.558594 10.78125 0.660156 6.378906 0.660156 C 4.675781 0.660156 2.695312 -1.816406 2.476562 -6.984375 C 2.253906 -11.824219 3.792969 -18.480469 6.488281 -18.589844 C 8.691406 -18.699219 9.183594 -15.894531 8.691406 -15.234375 C 8.359375 -14.683594 11.164062 -13.914062 11 -16.71875 C 10.945312 -17.820312 10.007812 -20.570312 6.269531 -20.402344 C 0.550781 -20.128906 -1.539062 -12.15625 -1.265625 -6.820312 C -0.933594 1.648438 4.125 2.476562 6.378906 2.476562 Z M 6.378906 2.476562 "/></g></g></g><g fill="#ffffff" fill-opacity="1"><g transform="translate(220.520873, 125.075793)"><g><path d="M 29.3125 -0.769531 C 22.273438 0 14.023438 -11.769531 10.449219 -18.425781 C 9.898438 -19.414062 10.175781 -19.414062 10.667969 -19.6875 C 14.792969 -22.054688 22.328125 -29.644531 24.253906 -34.207031 C 25.300781 -36.628906 22.273438 -38.5 22.054688 -37.949219 C 19.25 -31.183594 15.234375 -25.683594 9.347656 -21.613281 C 8.359375 -20.953125 7.808594 -20.515625 7.644531 -20.019531 C 7.589844 -26.949219 7.753906 -38.828125 7.535156 -39.929688 C 7.203125 -41.359375 2.640625 -40.53125 2.75 -39.160156 C 2.859375 -37.5625 4.070312 -25.023438 4.34375 -16.277344 C 4.621094 -7.644531 4.234375 -0.824219 4.179688 0.496094 C 4.125 1.980469 8.578125 2.199219 8.578125 0.769531 C 8.578125 -1.648438 7.863281 -5.664062 7.644531 -17.875 L 7.644531 -19.140625 C 7.644531 -19.027344 7.699219 -18.972656 7.699219 -18.917969 C 10.78125 -10.835938 19.523438 2.585938 27.167969 2.585938 C 29.808594 2.585938 29.972656 -0.824219 29.3125 -0.769531 Z M 29.3125 -0.769531 "/></g></g></g><g fill="#ffffff" fill-opacity="1"><g transform="translate(76.043063, 125.075793)"><g><path d="M 18.808594 -39.101562 C 14.792969 -39.101562 9.347656 -32.503906 7.039062 -26.234375 C 7.09375 -32.449219 7.039062 -39.101562 6.875 -39.929688 C 6.542969 -41.359375 1.980469 -40.53125 2.144531 -39.707031 C 2.253906 -37.5625 3.355469 -25.023438 3.683594 -16.277344 C 3.738281 -15.125 3.738281 -13.914062 3.792969 -12.703125 C 2.035156 -14.410156 1.101562 -16.828125 1.101562 -19.195312 C 1.101562 -19.742188 -2.253906 -19.855469 -2.253906 -17.269531 C -2.253906 -13.695312 0.273438 -10.890625 3.792969 -9.347656 C 3.738281 -3.960938 3.574219 1.210938 3.519531 2.144531 C 3.464844 3.628906 7.917969 3.851562 7.917969 2.417969 C 7.917969 0.878906 7.480469 -3.246094 7.203125 -8.359375 C 8.03125 -8.195312 8.910156 -8.140625 9.789062 -8.140625 C 17.433594 -8.140625 25.132812 -15.179688 25.132812 -29.3125 C 25.132812 -35.636719 22.382812 -39.101562 18.808594 -39.101562 Z M 10.066406 -10.175781 C 8.964844 -10.175781 7.976562 -10.339844 7.09375 -10.613281 C 6.984375 -12.757812 6.929688 -14.960938 6.984375 -17.214844 L 7.039062 -17.214844 C 7.316406 -24.089844 13.914062 -36.847656 18.753906 -36.847656 C 20.898438 -36.847656 21.945312 -33.878906 21.945312 -29.257812 C 21.945312 -18.148438 15.179688 -10.175781 10.066406 -10.175781 Z M 10.066406 -10.175781 "/></g></g></g><g fill="#ffffff" fill-opacity="1"><g transform="translate(105.300946, 125.075793)"><g><path d="M 18.699219 -16.773438 C 16.773438 -10.339844 11.328125 0.164062 6.929688 0.164062 C 5.664062 0.164062 3.519531 -0.988281 2.695312 -4.398438 C 7.425781 -7.917969 11.988281 -12.429688 11.988281 -17.929688 C 11.988281 -20.074219 10.722656 -22.109375 7.808594 -22.109375 C 3.628906 -22.109375 -0.386719 -16.882812 -1.046875 -9.128906 C -1.761719 0.109375 4.234375 2.035156 6.765625 2.035156 C 12.757812 2.035156 18.425781 -10.066406 20.019531 -14.90625 C 20.347656 -15.894531 19.085938 -18.09375 18.699219 -16.773438 Z M 2.417969 -8.910156 C 2.859375 -14.246094 5.554688 -20.347656 7.917969 -20.347656 C 9.183594 -20.347656 9.292969 -18.535156 9.183594 -17.378906 C 8.691406 -12.265625 5.167969 -8.855469 2.363281 -6.710938 C 2.363281 -7.371094 2.363281 -8.085938 2.417969 -8.910156 Z M 2.417969 -8.910156 "/></g></g></g><g fill="#ffffff" fill-opacity="1"><g transform="translate(122.349711, 125.075793)"><g><path d="M 15.289062 -16.773438 C 11.769531 -8.691406 6.105469 1.046875 4.453125 1.046875 C 4.015625 1.046875 3.410156 -0.109375 3.355469 -1.761719 C 3.023438 -7.808594 3.191406 -13.417969 4.070312 -22.054688 C 6.542969 -22.21875 9.292969 -22.933594 11.988281 -23.8125 C 12.648438 -24.035156 12.320312 -25.574219 11.714844 -25.300781 C 10.121094 -24.527344 7.589844 -24.089844 4.289062 -24.089844 L 5.445312 -33.769531 C 5.609375 -34.921875 1.816406 -35.582031 1.816406 -33.933594 C 1.539062 -31.019531 1.210938 -27.882812 0.933594 -24.308594 C -2.53125 -24.75 -4.839844 -25.792969 -5.335938 -26.5625 C -5.445312 -26.730469 -6.601562 -26.179688 -6.601562 -25.023438 C -6.601562 -23.097656 -3.355469 -22.328125 0.769531 -22.109375 C 0.441406 -16.996094 0.164062 -10.835938 0.21875 -3.078125 C 0.273438 1.101562 1.703125 3.191406 4.398438 3.191406 C 7.535156 3.191406 11.605469 -4.179688 16.390625 -14.90625 C 16.9375 -15.785156 15.839844 -17.984375 15.289062 -16.773438 Z M 15.289062 -16.773438 "/></g></g></g><g fill="#ffffff" fill-opacity="1"><g transform="translate(135.878732, 125.075793)"><g><path d="M 19.523438 -3.851562 C 19.195312 -2.53125 17.488281 0.550781 13.75 0.550781 C 10.007812 0.550781 4.015625 -3.90625 4.015625 -17.765625 C 4.015625 -32.722656 10.007812 -37.785156 13.472656 -37.785156 C 17.378906 -37.785156 17.820312 -35.089844 17.378906 -34.429688 C 16.996094 -33.878906 19.855469 -33.109375 19.6875 -35.914062 C 19.632812 -37.011719 18.371094 -39.707031 13.75 -39.707031 C 8.195312 -39.707031 0.660156 -34.976562 0.660156 -17.542969 C 0.660156 -1.210938 8.195312 2.199219 13.472656 2.199219 C 18.753906 2.199219 21.0625 -0.0546875 21.722656 -1.648438 C 22.382812 -3.246094 19.910156 -4.34375 19.523438 -3.851562 Z M 19.523438 -3.851562 "/></g></g></g><g fill="#ffffff" fill-opacity="1"><g transform="translate(162.111828, 125.075793)"><g><path d="M 27.167969 -16.609375 C 25.242188 -9.789062 20.238281 0.550781 18.3125 0.550781 C 17.597656 0.550781 17.160156 -1.761719 17.160156 -8.910156 C 17.160156 -17.050781 15.949219 -20.734375 12.871094 -20.734375 C 9.953125 -20.734375 6.378906 -15.015625 2.640625 -5.226562 C 2.476562 -11 2.253906 -18.808594 2.199219 -20.074219 C 1.980469 -27.003906 4.453125 -29.644531 4.453125 -35.417969 C 4.453125 -38.828125 3.792969 -40.3125 2.144531 -40.3125 C 0.441406 -40.3125 -0.550781 -37.617188 -0.550781 -33 L -0.496094 1.210938 C -0.496094 2.253906 2.75 2.035156 2.804688 1.046875 L 2.859375 1.046875 C 3.683594 -1.59375 10.230469 -18.371094 12.539062 -18.371094 C 14.132812 -18.371094 13.585938 -9.625 13.585938 -6.105469 C 13.585938 0.0546875 14.960938 2.476562 17.652344 2.476562 C 21.339844 2.476562 25.242188 -5.058594 28.488281 -14.683594 C 28.820312 -15.675781 27.609375 -18.09375 27.167969 -16.609375 Z M 27.167969 -16.609375 "/></g></g></g><g fill="#ffffff" fill-opacity="1"><g transform="translate(187.629976, 125.075793)"><g><path d="M 18.699219 -16.773438 C 16.773438 -10.339844 11.328125 0.164062 6.929688 0.164062 C 5.664062 0.164062 3.519531 -0.988281 2.695312 -4.398438 C 7.425781 -7.917969 11.988281 -12.429688 11.988281 -17.929688 C 11.988281 -20.074219 10.722656 -22.109375 7.808594 -22.109375 C 3.628906 -22.109375 -0.386719 -16.882812 -1.046875 -9.128906 C -1.761719 0.109375 4.234375 2.035156 6.765625 2.035156 C 12.757812 2.035156 18.425781 -10.066406 20.019531 -14.90625 C 20.347656 -15.894531 19.085938 -18.09375 18.699219 -16.773438 Z M 2.417969 -8.910156 C 2.859375 -14.246094 5.554688 -20.347656 7.917969 -20.347656 C 9.183594 -20.347656 9.292969 -18.535156 9.183594 -17.378906 C 8.691406 -12.265625 5.167969 -8.855469 2.363281 -6.710938 C 2.363281 -7.371094 2.363281 -8.085938 2.417969 -8.910156 Z M 2.417969 -8.910156 "/></g></g></g><g fill="#ffffff" fill-opacity="1"><g transform="translate(204.678742, 125.075793)"><g><path d="M 6.378906 2.476562 C 12.375 2.417969 18.148438 -10.007812 19.742188 -14.90625 C 20.019531 -15.894531 18.863281 -18.257812 18.425781 -16.773438 C 16.609375 -10.558594 10.78125 0.660156 6.378906 0.660156 C 4.675781 0.660156 2.695312 -1.816406 2.476562 -6.984375 C 2.253906 -11.824219 3.792969 -18.480469 6.488281 -18.589844 C 8.691406 -18.699219 9.183594 -15.894531 8.691406 -15.234375 C 8.359375 -14.683594 11.164062 -13.914062 11 -16.71875 C 10.945312 -17.820312 10.007812 -20.570312 6.269531 -20.402344 C 0.550781 -20.128906 -1.539062 -12.15625 -1.265625 -6.820312 C -0.933594 1.648438 4.125 2.476562 6.378906 2.476562 Z M 6.378906 2.476562 "/></g></g></g><g fill="#ffffff" fill-opacity="1"><g transform="translate(221.452529, 125.075793)"><g><path d="M 29.3125 -0.769531 C 22.273438 0 14.023438 -11.769531 10.449219 -18.425781 C 9.898438 -19.414062 10.175781 -19.414062 10.667969 -19.6875 C 14.792969 -22.054688 22.328125 -29.644531 24.253906 -34.207031 C 25.300781 -36.628906 22.273438 -38.5 22.054688 -37.949219 C 19.25 -31.183594 15.234375 -25.683594 9.347656 -21.613281 C 8.359375 -20.953125 7.808594 -20.515625 7.644531 -20.019531 C 7.589844 -26.949219 7.753906 -38.828125 7.535156 -39.929688 C 7.203125 -41.359375 2.640625 -40.53125 2.75 -39.160156 C 2.859375 -37.5625 4.070312 -25.023438 4.34375 -16.277344 C 4.621094 -7.644531 4.234375 -0.824219 4.179688 0.496094 C 4.125 1.980469 8.578125 2.199219 8.578125 0.769531 C 8.578125 -1.648438 7.863281 -5.664062 7.644531 -17.875 L 7.644531 -19.140625 C 7.644531 -19.027344 7.699219 -18.972656 7.699219 -18.917969 C 10.78125 -10.835938 19.523438 2.585938 27.167969 2.585938 C 29.808594 2.585938 29.972656 -0.824219 29.3125 -0.769531 Z M 29.3125 -0.769531 "/></g></g></g></svg>