<svg width="30" height="30" viewBox="0 0 30 30" fill="none" xmlns="http://www.w3.org/2000/svg">
<g clip-path="url(#clip0_45_2395)">
<path d="M29.9998 15.0919C29.9998 6.75561 23.2836 -0.00189209 14.9998 -0.00189209C6.71234 -1.70897e-05 -0.00390625 6.75561 -0.00390625 15.0937C-0.00390625 22.6256 5.48234 28.8694 12.6523 30.0019V19.455H8.84609V15.0937H12.6561V11.7656C12.6561 7.98373 14.8967 5.89498 18.3223 5.89498C19.9648 5.89498 21.6805 6.18936 21.6805 6.18936V9.90186H19.7886C17.9267 9.90186 17.3455 11.0662 17.3455 12.2606V15.0919H21.5042L20.8405 19.4531H17.3436V30C24.5136 28.8675 29.9998 22.6237 29.9998 15.0919Z" fill="#6C74BB"/>
</g>
<defs>
<clipPath id="clip0_45_2395">
<rect width="30" height="30" fill="white"/>
</clipPath>
</defs>
</svg>
